<svg version="1.1" viewBox="0.0 0.0 195.501312335958 105.501312335958" fill="none" stroke="none" stroke-linecap="square" stroke-miterlimit="10" xmlns:xlink="http://www.w3.org/1999/xlink" xmlns="http://www.w3.org/2000/svg"><clipPath id="p.0"><path d="m0 0l195.50131 0l0 105.50131l-195.50131 0l0 -105.50131z" clip-rule="nonzero"/></clipPath><g clip-path="url(#p.0)"><path fill="#000000" fill-opacity="0.0" d="m0 0l195.50131 0l0 105.50131l-195.50131 0z" fill-rule="evenodd"/><path fill="#000000" fill-opacity="0.0" d="m2.7742782 19.417656l0 0c0 -9.204929 7.46207 -16.667 16.667 -16.667l156.61874 0c4.4203644 0 8.659683 1.7559824 11.785355 4.8816514c3.1256714 3.125669 4.881653 7.364985 4.881653 11.785349l0 66.666c0 9.204933 -7.4620667 16.667 -16.667007 16.667l-156.61874 0c-9.20493 0 -16.667 -7.4620667 -16.667 -16.667z" fill-rule="evenodd"/><path stroke="#000000" stroke-width="1.0" stroke-linejoin="round" stroke-linecap="butt" d="m2.7742782 19.417656l0 0c0 -9.204929 7.46207 -16.667 16.667 -16.667l156.61874 0c4.4203644 0 8.659683 1.7559824 11.785355 4.8816514c3.1256714 3.125669 4.881653 7.364985 4.881653 11.785349l0 66.666c0 9.204933 -7.4620667 16.667 -16.667007 16.667l-156.61874 0c-9.20493 0 -16.667 -7.4620667 -16.667 -16.667z" fill-rule="evenodd"/><path fill="#000000" fill-opacity="0.0" d="m6.0341206 3.238845l183.43307 0l0 99.02362l-183.43307 0z" fill-rule="evenodd"/><path fill="#000000" d="m23.06537 36.82447q-1.984375 0 -3.625 -0.4375q-1.625 -0.453125 -3.203125 -1.5625l0 -4.34375l2.796875 0l0.375 2.546875q0.5625 0.46875 1.53125 0.765625q0.984375 0.296875 2.125 0.296875q0.984375 0 1.65625 -0.265625q0.671875 -0.28125 1.015625 -0.78125q0.359375 -0.5 0.359375 -1.1875q0 -0.640625 -0.3125 -1.140625q-0.3125 -0.5 -1.046875 -0.90625q-0.71875 -0.421875 -1.953125 -0.8125q-2.140625 -0.625 -3.546875 -1.375q-1.390625 -0.75 -2.09375 -1.796875q-0.703125 -1.046875 -0.703125 -2.515625q0 -1.453125 0.8125 -2.5625q0.8125 -1.125 2.25 -1.765625q1.4375 -0.65625 3.3125 -0.671875q2.078125 -0.03125 3.671875 0.5q1.609375 0.515625 2.765625 1.4375l0 4.0625l-2.703125 0l-0.46875 -2.484375q-0.46875 -0.296875 -1.265625 -0.515625q-0.796875 -0.21875 -1.8125 -0.21875q-0.875 0 -1.53125 0.265625q-0.65625 0.25 -1.046875 0.75q-0.375 0.484375 -0.375 1.203125q0 0.59375 0.328125 1.046875q0.328125 0.453125 1.109375 0.859375q0.796875 0.40625 2.171875 0.859375q2.984375 0.828125 4.515625 2.1875q1.546875 1.359375 1.546875 3.578125q0 1.53125 -0.828125 2.65625q-0.828125 1.109375 -2.328125 1.71875q-1.484375 0.609375 -3.5 0.609375zm8.078217 -0.265625l0 -2.171875l1.9218769 -0.359375l0 -12.921875l-1.9218769 -0.375l0 -2.171875l13.984377 0l0 4.859375l-2.78125 0l-0.15625 -2.078125l-5.515625 0l0 4.515625l6.09375 0l0 2.78125l-6.09375 0l0 5.15625l5.8125 0l0.15625 -2.15625l2.75 0l0 4.921875l-14.250002 0zm16.176363 0l0 -2.171875l1.921875 -0.359375l0 -12.921875l-1.921875 -0.375l0 -2.171875l8.53125 0q2.078125 0 3.5625 0.640625q1.484375 0.640625 2.28125 1.84375q0.796875 1.1875 0.796875 2.875q0 1.578125 -0.796875 2.828125q-0.78125 1.25 -2.1875 1.96875q-1.40625 0.71875 -3.25 0.734375l-3.40625 0l0 4.578125l1.9375 0.359375l0 2.171875l-7.46875 0zm11.59375 0l-3.03125 -7.78125l3.25 -0.796875l2.625 6.0625l1.53125 0.34375l0 2.171875l-4.375 0zm-6.0625 -9.890625l2.953125 0q1.546875 0 2.3125 -0.65625q0.78125 -0.671875 0.78125 -1.9375q0 -1.25 -0.765625 -1.984375q-0.765625 -0.75 -2.28125 -0.75l-3.0 0l0 5.328125zm17.89355 9.890625l-5.78125 -15.625l-1.6093712 -0.203125l0 -2.171875l7.156246 0l0 2.171875l-1.609375 0.25l3.53125 10.625l0.265625 0.984375l0.078125 0l0.265625 -0.96875l3.53125 -10.640625l-1.890625 -0.25l0 -2.171875l6.828125 0l0 2.171875l-1.640625 0.203125l-5.421875 15.625l-3.703125 0zm11.858734 0l0 -2.171875l1.921875 -0.359375l0 -12.921875l-1.921875 -0.375l0 -2.171875l13.984375 0l0 4.859375l-2.78125 0l-0.15625 -2.078125l-5.515625 0l0 4.515625l6.09375 0l0 2.78125l-6.09375 0l0 5.15625l5.8125 0l0.15625 -2.15625l2.75 0l0 4.921875l-14.25 0zm16.176361 0l0 -2.171875l1.921875 -0.359375l0 -12.921875l-1.921875 -0.375l0 -2.171875l8.53125 0q2.078125 0 3.5625 0.640625q1.484375 0.640625 2.28125 1.84375q0.796875 1.1875 0.796875 2.875q0 1.578125 -0.796875 2.828125q-0.78125 1.25 -2.1875 1.96875q-1.40625 0.71875 -3.25 0.734375l-3.40625 0l0 4.578125l1.9375 0.359375l0 2.171875l-7.46875 0zm11.59375 0l-3.03125 -7.78125l3.25 -0.796875l2.625 6.0625l1.53125 0.34375l0 2.171875l-4.375 0zm-6.0625 -9.890625l2.953125 0q1.546875 0 2.3125 -0.65625q0.78125 -0.671875 0.78125 -1.9375q0 -1.25 -0.765625 -1.984375q-0.765625 -0.75 -2.28125 -0.75l-3.0 0l0 5.328125zm11.881836 9.890625l0 -2.171875l1.921875 -0.359375l0 -12.921875l-1.921875 -0.375l0 -2.171875l1.921875 0l3.609375 0l2.171875 0l0 2.171875l-2.171875 0.375l0 12.6875l5.078125 0l0.1875 -2.640625l2.75 0l0 5.40625l-13.546875 0zm14.840698 0l0 -2.171875l1.921875 -0.359375l0 -12.921875l-1.921875 -0.375l0 -2.171875l13.984375 0l0 4.859375l-2.78125 0l-0.15625 -2.078125l-5.515625 0l0 4.515625l6.09375 0l0 2.78125l-6.09375 0l0 5.15625l5.8125 0l0.15625 -2.15625l2.75 0l0 4.921875l-14.25 0zm23.520111 0.265625q-1.984375 0 -3.625 -0.4375q-1.625 -0.453125 -3.203125 -1.5625l0 -4.34375l2.796875 0l0.375 2.546875q0.5625 0.46875 1.53125 0.765625q0.984375 0.296875 2.125 0.296875q0.984375 0 1.65625 -0.265625q0.671875 -0.28125 1.015625 -0.78125q0.359375 -0.5 0.359375 -1.1875q0 -0.640625 -0.3125 -1.140625q-0.3125 -0.5 -1.046875 -0.90625q-0.71875 -0.421875 -1.953125 -0.8125q-2.140625 -0.625 -3.546875 -1.375q-1.390625 -0.75 -2.09375 -1.796875q-0.703125 -1.046875 -0.703125 -2.515625q0 -1.453125 0.8125 -2.5625q0.8125 -1.125 2.25 -1.765625q1.4375 -0.65625 3.3125 -0.671875q2.078125 -0.03125 3.671875 0.5q1.609375 0.515625 2.765625 1.4375l0 4.0625l-2.703125 0l-0.46875 -2.484375q-0.46875 -0.296875 -1.265625 -0.515625q-0.796875 -0.21875 -1.8125 -0.21875q-0.875 0 -1.53125 0.265625q-0.65625 0.25 -1.046875 0.75q-0.375 0.484375 -0.375 1.203125q0 0.59375 0.328125 1.046875q0.328125 0.453125 1.109375 0.859375q0.796875 0.40625 2.171875 0.859375q2.984375 0.828125 4.515625 2.1875q1.546875 1.359375 1.546875 3.578125q0 1.53125 -0.828125 2.65625q-0.828125 1.109375 -2.328125 1.71875q-1.484375 0.609375 -3.5 0.609375zm15.421967 0q-1.984375 0 -3.625 -0.4375q-1.625 -0.453125 -3.203125 -1.5625l0 -4.34375l2.796875 0l0.375 2.546875q0.5625 0.46875 1.53125 0.765625q0.984375 0.296875 2.125 0.296875q0.984375 0 1.65625 -0.265625q0.671875 -0.28125 1.015625 -0.78125q0.359375 -0.5 0.359375 -1.1875q0 -0.640625 -0.3125 -1.140625q-0.3125 -0.5 -1.046875 -0.90625q-0.71875 -0.421875 -1.953125 -0.8125q-2.140625 -0.625 -3.546875 -1.375q-1.390625 -0.75 -2.09375 -1.796875q-0.703125 -1.046875 -0.703125 -2.515625q0 -1.453125 0.8125 -2.5625q0.8125 -1.125 2.25 -1.765625q1.4375 -0.65625 3.3125 -0.671875q2.078125 -0.03125 3.671875 0.5q1.609375 0.515625 2.765625 1.4375l0 4.0625l-2.703125 0l-0.46875 -2.484375q-0.46875 -0.296875 -1.265625 -0.515625q-0.796875 -0.21875 -1.8125 -0.21875q-0.875 0 -1.53125 0.265625q-0.65625 0.25 -1.046875 0.75q-0.375 0.484375 -0.375 1.203125q0 0.59375 0.328125 1.046875q0.328125 0.453125 1.109375 0.859375q0.796875 0.40625 2.171875 0.859375q2.984375 0.828125 4.515625 2.1875q1.546875 1.359375 1.546875 3.578125q0 1.53125 -0.828125 2.65625q-0.828125 1.109375 -2.328125 1.71875q-1.484375 0.609375 -3.5 0.609375z" fill-rule="nonzero"/><path fill="#000000" d="m16.487246 93.43884l0 -4.5625l4.046875 -0.78125l0 -27.203125l-4.046875 -0.78125l0 -4.578125l30.187502 0l0 10.390625l-5.828125 0l-0.34375 -4.53125l-12.375002 0l0 10.4375l13.281252 0l0 5.859375l-13.281252 0l0 10.40625l4.062502 0.78125l0 4.5625l-15.703127 0zm49.272827 0.546875q-3.8281212 0 -6.984371 -1.421875q-3.140625 -1.4375 -5.421875 -4.03125q-2.28125 -2.59375 -3.515625 -6.09375q-1.21875 -3.5 -1.21875 -7.671875l0 -0.578125q0 -4.140625 1.21875 -7.640625q1.234375 -3.5 3.5 -6.09375q2.265625 -2.609375 5.40625 -4.03125q3.15625 -1.4375 6.984371 -1.4375q3.859375 0 7.03125 1.4375q3.171875 1.421875 5.46875 4.03125q2.296875 2.59375 3.53125 6.09375q1.234375 3.5 1.234375 7.640625l0 0.578125q0 4.171875 -1.234375 7.671875q-1.234375 3.5 -3.53125 6.09375q-2.296875 2.59375 -5.453125 4.03125q-3.15625 1.421875 -7.015625 1.421875zm0 -5.90625q3.234375 0 5.359375 -1.671875q2.140625 -1.671875 3.21875 -4.65625q1.078125 -3.0 1.078125 -6.984375l0 -0.625q0 -3.9375 -1.09375 -6.90625q-1.09375 -2.984375 -3.25 -4.640625q-2.140625 -1.671875 -5.34375 -1.671875q-3.1718712 0 -5.281246 1.65625q-2.109375 1.640625 -3.171875 4.609375q-1.046875 2.96875 -1.046875 6.953125l0 0.625q0 3.984375 1.046875 6.984375q1.0625 2.984375 3.1875 4.65625q2.125 1.671875 5.296871 1.671875zm20.277573 5.359375l0 -4.5625l4.046875 -0.78125l0 -27.203125l-4.046875 -0.78125l0 -4.578125l17.96875 0q4.375 0 7.5 1.359375q3.125 1.34375 4.796875 3.875q1.6875 2.515625 1.6875 6.0625q0 3.328125 -1.671875 5.96875q-1.65625 2.625 -4.625 4.140625q-2.96875 1.5 -6.84375 1.53125l-7.171875 0l0 9.625l4.0625 0.78125l0 4.5625l-15.703125 0zm24.40625 0l-6.375 -16.375l6.84375 -1.703125l5.515625 12.765625l3.234375 0.75l0 4.5625l-9.21875 0zm-12.765625 -20.828125l6.203125 0q3.28125 0 4.90625 -1.390625q1.625 -1.40625 1.625 -4.0625q0 -2.625 -1.609375 -4.1875q-1.609375 -1.578125 -4.796875 -1.578125l-6.328125 0l0 11.21875zm25.02246 20.828125l0 -4.5625l4.046875 -0.78125l0 -27.203125l-4.046875 -0.78125l0 -4.578125l4.046875 0l11.25 0l10.328125 26.421875l0.15625 0l10.0 -26.421875l15.3125 0l0 4.578125l-4.0625 0.78125l0 27.203125l4.0625 0.78125l0 4.5625l-15.703125 0l0 -4.5625l4.25 -0.78125l0 -7.265625l0.125 -17.09375l-0.15625 -0.03125l-11.328125 29.21875l-5.75 0l-11.59375 -28.984375l-0.15625 0.03125l0.453125 16.078125l0 8.046875l4.46875 0.78125l0 4.5625l-15.703125 0z" fill-rule="nonzero"/></g></svg>